<?xml version="1.0" encoding="UTF-8" standalone="no"?>
<svg
   viewBox="0 0 137.33333 137.33333"
   height="137.33333"
   width="137.33333"
   xml:space="preserve"
   id="svg2"
   version="1.1"
   sodipodi:docname="color1_icon_transparent_background (1).svg"
   inkscape:export-filename="color1_icon_transparent_background (1).png"
   inkscape:export-xdpi="96"
   inkscape:export-ydpi="96"
   inkscape:version="1.3 (0e150ed6c4, 2023-07-21)"
   xmlns:inkscape="http://www.inkscape.org/namespaces/inkscape"
   xmlns:sodipodi="http://sodipodi.sourceforge.net/DTD/sodipodi-0.dtd"
   xmlns="http://www.w3.org/2000/svg"
   xmlns:svg="http://www.w3.org/2000/svg"
   xmlns:rdf="http://www.w3.org/1999/02/22-rdf-syntax-ns#"
   xmlns:cc="http://creativecommons.org/ns#"
   xmlns:dc="http://purl.org/dc/elements/1.1/"><sodipodi:namedview
     id="namedview1"
     pagecolor="#ffffff"
     bordercolor="#666666"
     borderopacity="1.0"
     inkscape:showpageshadow="2"
     inkscape:pageopacity="0.0"
     inkscape:pagecheckerboard="0"
     inkscape:deskcolor="#d1d1d1"
     inkscape:zoom="5.7305827"
     inkscape:cx="68.579413"
     inkscape:cy="68.666664"
     inkscape:window-width="1920"
     inkscape:window-height="1001"
     inkscape:window-x="-9"
     inkscape:window-y="-9"
     inkscape:window-maximized="1"
     inkscape:current-layer="svg2" /><metadata
     id="metadata8"><rdf:RDF><cc:Work
         rdf:about=""><dc:format>image/svg+xml</dc:format><dc:type
           rdf:resource="http://purl.org/dc/dcmitype/StillImage" /></cc:Work></rdf:RDF></metadata><defs
     id="defs6" /><g
     transform="matrix(1.3333333,0,0,-1.3333333,0,137.33333)"
     id="g10"><g
       transform="scale(0.1)"
       id="g12"><path
         id="path14"
         style="fill:#11111f;fill-opacity:1;fill-rule:nonzero;stroke:none"
         d="m 57.2305,516.25 c 0,252.109 204.4105,456.52 456.5195,456.52 252.109,0 456.48,-204.411 456.48,-456.52 C 970.23,264.141 765.859,59.7305 513.75,59.7305 261.641,59.7305 57.2305,264.141 57.2305,516.25 Z M 521.129,925 h -5.93 C 289.531,925 105.43,740.941 105.43,515.27 c 0,-29.68 2.968,-56.399 8.91,-86.09 v 35.621 c 0,190.039 151.441,341.449 341.441,341.449 23.75,0 44.528,-2.969 65.348,-5.941 z m 0,-148.441 c -20.82,2.972 -41.598,5.941 -65.348,5.941 -175.16,0 -317.691,-142.5 -317.691,-317.699 0,-175.153 142.531,-317.692 317.691,-317.692 175.199,0 317.699,142.539 317.699,317.692 0,8.91 0,20.789 -2.968,29.687 h -56.41 v -29.687 c 0,-142.5 -115.782,-261.281 -258.321,-261.281 -142.5,0 -261.25,118.781 -261.25,261.281 0,142.539 118.75,258.32 261.25,258.32 23.75,0 44.528,-2.961 65.348,-8.902 z M 770.512,515.27 C 749.73,637.031 660.66,737.969 541.91,770.621 v -62.34 C 628.012,678.59 693.32,604.379 711.129,515.27 Z m 26.718,-20.782 v -29.687 c 0,-190 -154.378,-341.442 -341.449,-341.442 -26.722,0 -53.441,2.969 -80.16,8.911 44.539,-14.848 89.07,-23.75 139.578,-23.75 216.711,0 394.879,169.25 406.75,385.968 z m 230.19,11.641 -0.15,-5.109 -0.16,-5.161 -0.23,-5.121 -0.28,-5.117 -0.31,-5.152 -0.35,-5.117 -0.43,-5.122 -0.47,-5.109 -0.55,-5.121 -0.54,-5.078 -0.67,-5.121 -0.66,-5.071 -0.74,-5.082 -0.79,-5.078 -0.82,-5.082 -0.89,-5.078 -0.94,-5.031 -0.98,-5.039 -1.05,-5.039 -1.1,-5.039 -1.13,-5 -1.17,-5 -1.25,-5 -1.29,-4.961 -1.37,-4.961 -1.4,-4.961 -1.45,-4.93 -1.48,-4.918 -1.57,-4.883 -1.6,-4.878 -1.639,-4.891 -1.68,-4.84 -1.761,-4.84 -1.75,-4.808 -1.84,-4.801 -3.828,-9.539 -1.993,-4.723 -1.129,-2.738 -4.14,-9.371 -2.149,-4.688 -2.191,-4.652 -2.23,-4.609 -2.258,-4.61 -2.352,-4.57 -2.379,-4.57 -2.422,-4.532 -2.461,-4.488 -2.5,-4.488 -2.539,-4.461 -2.621,-4.449 -2.617,-4.411 -2.691,-4.382 -2.731,-4.329 -2.777,-4.339 -2.813,-4.301 -5.781,-8.512 -5.937,-8.359 -3.051,-4.18 -3.078,-4.098 -3.133,-4.101 -3.117,-4.031 -3.211,-4.02 -3.242,-3.988 -3.278,-3.981 -3.32,-3.91 -3.359,-3.898 -3.403,-3.832 -3.429,-3.828 -3.481,-3.793 -3.48,-3.75 -3.547,-3.707 -7.192,-7.34 -2.109,-2.071 -3.633,-3.601 -3.707,-3.551 -3.75,-3.519 -3.75,-3.469 -3.832,-3.481 -3.828,-3.398 -3.871,-3.363 -3.899,-3.36 -3.953,-3.277 -7.968,-6.481 -4.059,-3.171 -4.063,-3.122 -4.097,-3.128 -4.141,-3.04 -4.14,-3.0112 -4.219,-2.9688 -4.223,-2.9297 -4.258,-2.8906 -4.261,-2.8086 -4.329,-2.8203 -4.339,-2.7695 -4.371,-2.6915 -4.379,-2.6601 -4.411,-2.6211 -4.46,-2.5781 -4.489,-2.5313 -4.492,-2.4687 -4.527,-2.461 -4.532,-2.3789 -4.57,-2.3398 -4.609,-2.3125 -4.61,-2.2188 -4.652,-2.2304 -4.648,-2.1485 -4.692,-2.1093 -4.679,-2.0704 -4.731,-2.0312 -4.648,-1.9492 -9.532,-3.8321 -4.808,-1.8398 -4.801,-1.7891 -9.691,-3.4414 -4.879,-1.6367 -4.879,-1.6016 -4.891,-1.5312 -4.922,-1.5195 -4.918,-1.4493 -4.961,-1.3984 -4.961,-1.332 -4.957,-1.2891 -5,-1.25 -5,-1.2109 -5,-1.1289 -5.043,-1.1016 -5,-1.0508 -5.078,-0.9765 -5.039,-0.9414 L 600.738,9.76953 590.59,8.12109 585.469,7.42188 580.391,6.71875 575.27,6.08984 570.199,5.51172 565.078,5 559.961,4.53125 554.84,4.10156 l -5.11,-0.39062 -5.121,-0.3125 -5.16,-0.27735 -5.109,-0.23046 -5.121,-0.16016 -5.16,-0.10938 -5.11,-0.08203 -5.16,-0.03906 -5.039,0.03906 -5.121,0.04297 -5.149,0.14844 -5.121,0.16016 -5.121,0.23046 -5.117,0.27735 -5.152,0.3125 -5.117,0.34765 -5.122,0.42969 -5.109,0.47266 -5.121,0.55078 -5.078,0.53906 -5.121,0.66797 -5.071,0.66016 -5.082,0.74218 -5.117,0.78907 -5.043,0.82031 -5.078,0.89063 -5.031,0.9375 -5.039,0.9805 -5.039,1.0507 -5.039,1.1016 -5,1.1289 -5,1.168 -5,1.25 -4.961,1.293 -4.961,1.3671 -4.961,1.4024 -4.93,1.4492 -4.918,1.4805 -4.883,1.5703 -4.878,1.5976 -4.891,1.6407 -4.84,1.6797 -4.84,1.7617 -4.808,1.75 -4.801,1.8398 -9.539,3.8281 -4.723,1.9922 -2.738,1.1289 -9.371,4.1407 -4.688,2.1484 -4.652,2.1914 -4.609,2.2305 -4.61,2.2578 -4.57,2.3515 -4.57,2.379 -4.532,2.4218 -4.488,2.461 -4.488,2.5 -4.461,2.539 -4.449,2.6211 -4.411,2.6172 -4.382,2.6914 -4.329,2.7305 -4.339,2.7773 -4.301,2.8125 -8.512,5.7813 -4.219,2.9687 -4.14,2.9688 -4.18,3.0506 -4.098,3.078 -4.101,3.133 -4.031,3.117 -4.02,3.211 -3.988,3.242 -3.981,3.278 -3.91,3.32 -3.898,3.359 -3.832,3.403 -3.828,3.429 -3.793,3.481 -3.75,3.48 -3.707,3.547 -7.34,7.192 -2.071,2.109 -3.601,3.633 -3.551,3.707 -3.519,3.75 -3.469,3.75 -3.481,3.832 -3.398,3.828 -3.363,3.871 -3.36,3.899 -3.277,3.953 -6.481,7.968 -3.171,4.059 -3.122,4.063 -3.128,4.097 -3.0395,4.141 -3.0117,4.14 -2.9688,4.219 -2.9297,4.223 -2.8906,4.258 -2.8086,4.261 -2.8203,4.329 -2.7305,4.339 -2.7305,4.371 -2.6601,4.379 -2.6211,4.411 -2.5781,4.46 -2.5313,4.489 -2.4687,4.492 -2.461,4.527 -2.3789,4.532 -2.3398,4.57 -2.3125,4.609 -2.2188,4.61 -2.2304,4.652 -2.1485,4.648 -2.1093,4.692 -2.0704,4.679 -2.0312,4.731 -1.9492,4.648 -1.961,4.762 -1.8711,4.77 -1.8398,4.808 -1.7891,4.801 -3.4414,9.691 -1.6367,4.879 -1.6016,4.879 -1.5312,4.891 -1.5195,4.922 -1.4493,4.918 -1.3984,4.961 -1.332,4.961 -1.2891,4.957 -1.25,5 -1.2109,5 -1.1289,5 -1.1016,5.043 -1.0508,5 -0.97654,5.078 -0.9414,5.039 -0.89063,5.043 -0.85937,5.078 -0.78907,5.07 -0.69921,5.121 -0.70313,5.078 -0.62891,5.082 -0.57812,5.11 -0.51172,5.121 -0.46875,5.117 -0.42969,5.121 -0.39062,5.11 -0.312502,5.121 -0.277344,5.16 -0.230469,5.109 -0.160156,5.121 -0.109375,5.16 -0.0820315,5.11 L 0,516.211 l 0.0390625,5.039 0.0390625,5.121 0.152344,5.149 0.160156,5.121 0.230469,5.121 0.277344,5.117 0.312502,5.152 0.34765,5.117 0.42969,5.122 0.47266,5.109 0.55078,5.121 0.53906,5.078 0.66797,5.121 0.66016,5.071 0.74218,5.082 0.78907,5.078 0.82031,5.082 0.89062,5.078 0.9375,5.031 0.98051,5.039 1.0507,5.039 1.1016,5.039 1.1289,5 1.168,5 1.25,5 1.293,4.961 1.3671,4.961 1.4024,4.961 1.4492,4.93 1.4805,4.918 3.1289,9.761 1.6797,4.891 1.6797,4.84 1.7226,4.84 1.7891,4.808 1.8398,4.801 3.8281,9.539 1.9922,4.723 1.1289,2.738 4.1407,9.371 2.1484,4.688 2.1914,4.652 2.2305,4.609 2.2578,4.61 2.3515,4.57 2.379,4.57 2.4218,4.532 2.461,4.488 2.5,4.488 2.539,4.461 2.6211,4.449 2.6172,4.411 2.6914,4.382 2.7305,4.329 2.7773,4.339 2.8125,4.301 5.7813,8.512 2.9687,4.219 2.9688,4.14 3.0506,4.18 3.078,4.098 3.133,4.101 3.117,4.031 3.211,4.02 3.242,3.988 3.278,3.981 3.32,3.91 3.359,3.898 3.403,3.832 3.429,3.828 3.481,3.793 3.48,3.75 3.547,3.707 7.192,7.34 2.109,2.071 3.633,3.601 3.707,3.551 3.75,3.519 3.75,3.469 3.832,3.481 3.828,3.398 3.871,3.363 3.899,3.36 3.953,3.277 7.968,6.481 4.059,3.171 4.063,3.122 4.097,3.128 4.141,3.04 4.14,3.011 4.219,2.969 4.223,2.93 4.258,2.89 4.261,2.809 4.329,2.82 4.339,2.731 4.371,2.73 4.379,2.66 4.411,2.621 4.46,2.579 4.489,2.531 4.492,2.469 4.527,2.46 4.532,2.379 4.57,2.34 4.609,2.313 4.61,2.218 4.652,2.231 4.648,2.148 4.692,2.11 4.679,2.07 4.731,2.031 4.648,1.95 4.762,1.96 4.77,1.872 4.808,1.839 4.801,1.789 9.691,3.44 4.879,1.64 4.879,1.6 4.891,1.53 4.922,1.52 4.918,1.45 4.961,1.4 4.961,1.33 4.957,1.29 5,1.25 5,1.21 5,1.13 5.043,1.1 5,1.05 5.078,0.98 5.039,0.94 5.043,0.89 5.078,0.86 5.07,0.79 5.121,0.7 5.078,0.7 5.082,0.63 5.11,0.58 5.121,0.51 5.117,0.47 5.121,0.43 5.11,0.39 5.121,0.31 5.16,0.28 5.109,0.23 5.121,0.16 5.16,0.11 5.11,0.08 5.16,0.04 5.039,-0.04 5.121,-0.04 5.109,-0.15 5.161,-0.16 5.121,-0.23 5.117,-0.28 5.152,-0.31 5.117,-0.35 5.122,-0.43 5.109,-0.47 5.121,-0.55 5.078,-0.54 5.121,-0.67 5.071,-0.66 5.082,-0.74 5.078,-0.79 5.082,-0.82 5.078,-0.89 5.031,-0.94 5.039,-0.98 5.039,-1.05 5.039,-1.1 5,-1.13 5,-1.17 5,-1.25 4.961,-1.29 4.961,-1.37 4.961,-1.4 4.93,-1.45 4.918,-1.48 9.761,-3.13 4.891,-1.68 4.84,-1.68 4.84,-1.721 4.808,-1.789 4.801,-1.84 9.539,-3.828 4.723,-1.993 2.738,-1.129 9.371,-4.14 4.688,-2.149 4.652,-2.191 4.609,-2.23 4.61,-2.258 4.57,-2.352 4.57,-2.379 4.532,-2.422 4.488,-2.461 4.488,-2.5 4.461,-2.539 4.449,-2.621 4.411,-2.617 4.382,-2.691 4.329,-2.731 4.339,-2.777 4.301,-2.813 8.512,-5.781 8.359,-5.937 4.18,-3.051 4.098,-3.078 4.101,-3.133 4.031,-3.117 4.02,-3.211 3.988,-3.242 3.981,-3.278 3.91,-3.32 3.898,-3.359 3.832,-3.403 3.828,-3.429 3.793,-3.481 3.75,-3.48 3.707,-3.547 7.34,-7.192 2.071,-2.109 3.601,-3.633 3.551,-3.707 3.519,-3.75 3.469,-3.75 3.481,-3.832 3.398,-3.828 3.363,-3.871 3.36,-3.899 3.277,-3.953 6.481,-7.968 3.171,-4.059 3.122,-4.063 3.128,-4.097 3.04,-4.141 3.011,-4.14 2.969,-4.219 2.93,-4.223 2.89,-4.258 2.809,-4.261 2.82,-4.329 2.731,-4.339 2.73,-4.371 2.66,-4.379 2.621,-4.411 2.579,-4.46 2.531,-4.489 2.469,-4.492 2.46,-4.527 2.379,-4.532 2.34,-4.57 2.313,-4.609 2.218,-4.61 2.231,-4.652 2.148,-4.648 2.11,-4.692 2.07,-4.679 2.031,-4.731 1.95,-4.648 1.96,-4.762 1.872,-4.77 1.839,-4.808 1.789,-4.801 3.442,-9.691 1.638,-4.879 1.6,-4.879 1.53,-4.891 1.52,-4.922 1.45,-4.918 1.4,-4.961 1.33,-4.961 1.29,-4.957 1.25,-5 1.21,-5 1.13,-5 1.1,-5.043 1.05,-5 0.98,-5.078 0.94,-5.039 0.89,-5.043 1.65,-10.148 0.7,-5.121 0.7,-5.078 0.63,-5.082 0.58,-5.11 0.51,-5.121 0.47,-5.117 0.43,-5.121 0.39,-5.11 0.31,-5.121 0.28,-5.16 0.23,-5.109 0.16,-5.121 0.11,-5.16 0.08,-5.11 0.04,-5.16 v -0.078 l -0.04,-4.961 z m -24.06,14.961 -0.04,4.89 -0.12,4.918 -0.19,4.883 -0.2,4.918 -0.27,4.891 -0.31,4.879 -0.35,4.883 -0.4,4.878 -0.46,4.891 -0.47,4.84 -0.55,4.879 -0.621,4.851 -0.629,4.879 -0.699,4.84 -0.75,4.809 -0.821,4.84 -0.82,4.812 -0.89,4.84 -0.942,4.809 -1.019,4.761 -1.008,4.809 -1.102,4.762 -1.129,4.769 -2.422,9.449 -1.289,4.731 -1.328,4.719 -1.371,4.691 -1.441,4.687 -1.489,4.692 -1.519,4.64 -1.563,4.61 -1.597,4.648 -1.68,4.614 -1.68,4.57 -1.761,4.566 -1.801,4.571 -1.828,4.531 -1.879,4.461 -1.91,4.488 -1.992,4.492 -2,4.449 -2.071,4.461 -2.109,4.411 -2.141,4.418 -2.187,4.371 -2.231,4.379 -2.301,4.332 -2.308,4.296 -2.383,4.301 -2.379,4.25 -2.461,4.223 -2.5,4.219 -2.539,4.179 -2.582,4.18 -2.617,4.141 -2.66,4.097 -2.692,4.063 -2.738,4.07 -2.812,4.02 -2.809,3.98 -2.891,3.988 -2.89,3.942 -2.93,3.91 -3.008,3.867 -3.011,3.832 -3.079,3.82 -3.089,3.79 -6.332,7.5 -3.2,3.679 -3.281,3.672 -3.277,3.629 -3.321,3.59 -3.363,3.558 -3.398,3.551 -3.442,3.52 -1.949,1.992 -3.48,3.437 -3.547,3.403 -3.524,3.398 -7.187,6.641 -3.672,3.281 -3.668,3.238 -3.711,3.2 -3.711,3.171 -3.789,3.122 -3.789,3.089 -3.832,3.039 -3.859,3.008 -3.872,2.973 -3.949,2.93 -3.937,2.89 -3.992,2.848 -3.981,2.82 -4.059,2.77 -4.07,2.73 -4.058,2.699 -8.282,5.231 -4.179,2.582 -4.18,2.5 -4.223,2.461 -4.258,2.457 -4.25,2.391 -4.3,2.339 -4.34,2.301 -4.328,2.27 -4.383,2.23 -4.367,2.141 -4.422,2.148 -4.449,2.071 -8.911,4.07 -4.531,1.949 -2.539,1.09 -4.531,1.883 -4.527,1.828 -4.571,1.801 -4.57,1.757 -4.57,1.723 -4.61,1.68 -4.652,1.597 -4.609,1.563 -4.649,1.519 -4.68,1.489 -9.382,2.812 -4.719,1.328 -9.461,2.5 -4.719,1.172 -4.769,1.168 -4.77,1.063 -4.801,1.047 -4.769,0.98 -4.801,0.981 -4.84,0.851 -4.808,0.859 -4.84,0.79 -4.813,0.78 -4.84,0.66 -4.879,0.67 -4.851,0.58 -4.879,0.55 -4.84,0.51 -4.89,0.46 -4.879,0.4 -4.879,0.35 -4.891,0.31 -4.922,0.27 -9.758,0.39 -4.921,0.12 -4.891,0.04 -4.84,0.04 -9.769,-0.08 -4.918,-0.12 -4.883,-0.19 -4.918,-0.2 -4.891,-0.27 -4.879,-0.31 -4.883,-0.35 -4.878,-0.4 -4.891,-0.46 -4.84,-0.47 -4.879,-0.55 -4.851,-0.62 -4.879,-0.63 -4.84,-0.7 -4.809,-0.749 -4.84,-0.821 -4.812,-0.82 -4.84,-0.89 -4.809,-0.942 -4.761,-1.019 -4.809,-1.008 -4.762,-1.102 -4.769,-1.129 -9.449,-2.422 -4.731,-1.289 -4.719,-1.328 -4.691,-1.371 -4.687,-1.441 -4.692,-1.489 -4.64,-1.519 -4.61,-1.563 -4.648,-1.597 -4.614,-1.68 -4.57,-1.68 -4.566,-1.761 -4.571,-1.801 -4.531,-1.828 -4.461,-1.879 -4.488,-1.91 -4.492,-1.992 -4.449,-2 -4.461,-2.071 -4.411,-2.109 -4.418,-2.141 -4.371,-2.187 -4.379,-2.231 -4.332,-2.301 -4.296,-2.308 -4.301,-2.383 -4.25,-2.379 -4.223,-2.461 -4.219,-2.5 -4.179,-2.539 -4.18,-2.582 -4.141,-2.617 -4.097,-2.66 -4.063,-2.692 -4.07,-2.738 -4.02,-2.812 -3.98,-2.809 -3.988,-2.852 -3.942,-2.929 -3.91,-2.93 -3.867,-3.008 -3.832,-3.011 -3.82,-3.079 -3.79,-3.089 -7.5,-6.332 -3.679,-3.2 -3.672,-3.281 -3.629,-3.277 -3.59,-3.321 -3.558,-3.363 -3.551,-3.398 -3.52,-3.442 -1.992,-1.949 -3.437,-3.519 -3.403,-3.469 -3.398,-3.563 -6.641,-7.187 -3.281,-3.672 -3.238,-3.668 -3.2,-3.711 -3.171,-3.711 -3.122,-3.789 -3.089,-3.789 -3.039,-3.832 -3.008,-3.859 -2.973,-3.872 -2.93,-3.949 -2.89,-3.937 -2.848,-3.992 -2.82,-3.981 -2.77,-4.059 -2.73,-4.07 -2.699,-4.058 -5.2309,-8.282 -2.582,-4.179 -2.5,-4.18 -2.461,-4.223 -2.457,-4.258 -2.3906,-4.25 -2.3399,-4.3 -2.3008,-4.34 -2.2695,-4.328 -2.2305,-4.383 -2.1406,-4.367 -2.1484,-4.422 -4.1406,-8.899 -2,-4.461 -1.9493,-4.531 -1.0898,-2.539 -1.8828,-4.531 -1.8281,-4.527 -1.8008,-4.571 -1.7578,-4.57 -1.7227,-4.57 -1.6797,-4.61 -1.5976,-4.652 -1.5625,-4.609 -1.5196,-4.649 -1.4882,-4.68 -2.8125,-9.382 -1.3282,-4.719 -1.25,-4.692 -1.25,-4.769 -1.1718,-4.719 -1.168,-4.769 -1.0625,-4.77 -1.0469,-4.801 -0.9805,-4.769 -0.9804,-4.801 -0.8516,-4.801 -0.8594,-4.847 -0.789,-4.84 -0.7813,-4.813 -0.6601,-4.84 -0.668,-4.879 -0.582,-4.851 -0.5508,-4.879 -0.5078,-4.84 -0.461,-4.89 -0.3984,-4.879 -0.3516,-4.879 -0.3086,-4.891 -0.2695,-4.883 -0.2031,-4.918 -0.1875,-4.879 -0.1211,-4.921 -0.0391,-4.891 -0.039,-4.84 0.0781,-9.769 0.1211,-4.918 0.1875,-4.883 0.2031,-4.918 0.2695,-4.891 0.3086,-4.879 0.3516,-4.883 0.3984,-4.878 0.461,-4.891 0.4687,-4.84 0.5508,-4.879 0.6211,-4.851 0.6289,-4.879 0.6992,-4.84 0.75,-4.809 0.8203,-4.84 0.8203,-4.812 0.8907,-4.84 0.9414,-4.809 1.0195,-4.761 1.0078,-4.809 1.1016,-4.762 1.1289,-4.769 2.4219,-9.449 1.289,-4.731 1.3282,-4.719 1.371,-4.691 1.4415,-4.687 1.4882,-4.653 1.5196,-4.679 1.5625,-4.61 1.5976,-4.648 1.6797,-4.614 1.6797,-4.57 1.7617,-4.566 1.8008,-4.571 1.8281,-4.531 1.8789,-4.461 1.9102,-4.488 1.9922,-4.492 2,-4.449 2.0703,-4.461 2.1094,-4.411 2.1406,-4.418 2.1875,-4.371 2.2305,-4.379 2.3007,-4.332 2.3086,-4.296 2.3828,-4.301 2.3789,-4.25 2.461,-4.223 2.5,-4.219 2.539,-4.179 2.5821,-4.18 2.6171,-4.141 2.66,-4.097 2.692,-4.063 2.738,-4.07 2.812,-4.02 2.809,-3.98 2.852,-3.988 2.929,-3.942 2.93,-3.91 3.008,-3.867 3.011,-3.832 3.079,-3.82 3.089,-3.79 6.332,-7.5 3.2,-3.679 3.281,-3.672 3.277,-3.629 3.321,-3.59 3.363,-3.558 3.398,-3.551 3.442,-3.52 1.949,-1.992 3.519,-3.437 3.469,-3.403 3.563,-3.398 7.187,-6.641 3.672,-3.281 3.668,-3.238 3.711,-3.2 3.711,-3.171 3.789,-3.122 3.789,-3.089 3.832,-3.039 3.859,-3.008 3.872,-2.973 3.949,-2.93 3.937,-2.89 3.992,-2.848 3.981,-2.82 4.059,-2.77 4.07,-2.73 4.058,-2.699 8.282,-5.231 4.179,-2.5819 4.18,-2.5 4.223,-2.461 4.258,-2.457 4.25,-2.3906 4.3,-2.3399 4.34,-2.3008 4.328,-2.2695 4.383,-2.2305 4.367,-2.1406 4.422,-2.1484 8.899,-4.1406 4.461,-2 4.531,-1.9493 2.539,-1.0898 4.531,-1.8828 4.527,-1.8281 4.571,-1.8008 4.57,-1.7578 4.57,-1.7227 4.61,-1.6797 4.652,-1.5976 4.609,-1.5625 4.649,-1.5196 4.68,-1.4882 4.691,-1.4024 4.691,-1.3672 4.719,-1.3711 4.692,-1.25 4.769,-1.25 4.719,-1.1718 4.769,-1.168 4.77,-1.0625 4.801,-1.0469 4.769,-0.9805 4.801,-0.9804 4.801,-0.8516 4.847,-0.8594 4.84,-0.789 4.813,-0.7813 4.84,-0.6601 4.879,-0.668 4.851,-0.582 4.879,-0.5508 4.84,-0.5078 4.89,-0.461 4.879,-0.3984 4.879,-0.3516 4.891,-0.3086 4.883,-0.2695 4.918,-0.2031 4.879,-0.1875 4.921,-0.1211 4.891,-0.0391 4.84,-0.039 9.769,0.0781 4.918,0.1211 4.883,0.1875 4.918,0.2031 4.891,0.2695 4.879,0.3086 4.883,0.3516 4.878,0.3984 4.891,0.461 4.84,0.4687 4.879,0.5508 9.691,1.25 4.879,0.6992 4.809,0.75 4.84,0.8203 4.812,0.8203 4.84,0.8907 4.809,0.9414 4.761,1.0195 4.809,1.0078 4.762,1.1016 4.769,1.1289 9.449,2.4219 4.731,1.289 4.719,1.3282 4.691,1.371 4.687,1.4415 4.692,1.4882 4.64,1.5196 4.61,1.5625 4.648,1.5976 4.614,1.6797 4.57,1.6797 4.566,1.7617 4.571,1.8008 4.531,1.8281 4.461,1.8789 4.488,1.9102 4.492,1.9922 4.449,2 4.461,2.0703 4.411,2.1094 4.418,2.1406 4.371,2.1875 4.379,2.2305 4.332,2.3007 4.296,2.3086 4.301,2.3828 4.25,2.3789 4.223,2.461 4.219,2.5 4.179,2.539 4.18,2.5822 4.141,2.617 4.097,2.66 4.063,2.692 4.07,2.738 4.02,2.812 3.98,2.809 3.988,2.852 3.942,2.929 3.91,2.93 3.867,3.008 3.832,3.011 3.82,3.079 3.79,3.089 7.5,6.332 3.679,3.2 3.672,3.281 3.629,3.277 3.59,3.321 3.558,3.363 3.551,3.398 3.52,3.442 1.992,1.949 3.437,3.48 3.403,3.547 3.398,3.524 6.641,7.187 3.281,3.672 3.238,3.668 3.2,3.711 3.171,3.711 3.122,3.789 3.089,3.789 3.039,3.832 3.008,3.859 2.973,3.872 2.93,3.949 2.89,3.937 2.848,3.992 2.82,3.981 2.77,4.059 2.73,4.07 2.699,4.058 5.231,8.282 5.082,8.359 2.461,4.223 2.457,4.258 2.391,4.25 2.339,4.3 2.301,4.34 2.27,4.328 2.23,4.383 2.141,4.367 2.148,4.422 2.071,4.449 4.07,8.911 1.949,4.531 1.09,2.539 1.883,4.531 1.828,4.527 1.801,4.571 1.757,4.57 1.723,4.57 1.68,4.61 1.597,4.652 1.563,4.609 1.519,4.649 1.489,4.68 1.402,4.691 1.367,4.691 1.371,4.719 2.5,9.461 1.172,4.719 1.168,4.769 1.063,4.77 1.047,4.801 0.98,4.769 0.981,4.801 0.851,4.84 0.859,4.808 0.79,4.84 0.781,4.813 0.66,4.84 0.668,4.879 0.582,4.851 0.549,4.879 0.51,4.84 0.46,4.89 0.4,4.879 0.35,4.879 0.31,4.891 0.27,4.922 0.39,9.758 0.12,4.921 0.04,4.891 0.04,4.84 v 0.078 z" /></g></g></svg>
